<svg width="705" height="155" viewBox="0 0 705 155" fill="none" xmlns="http://www.w3.org/2000/svg">
<path d="M133.511 77.5C133.511 43.252 105.748 15.4865 71.5 15.4862C37.2518 15.4862 9.48621 43.2518 9.48621 77.5C9.48653 111.748 37.252 139.511 71.5 139.511C105.748 139.51 133.51 111.748 133.511 77.5ZM143 77.5C143 116.988 110.988 149 71.5 149C32.0114 149 0.000319773 116.988 0 77.5C0 38.0112 32.0112 6 71.5 6C110.988 6.00032 143 38.0114 143 77.5Z" fill="#0B0B0B"/>
<path d="M64.375 49.5188L83.0607 77.5353L64.375 105.547H81.4606L91.6061 90.341L101.747 105.547H118.832L81.4597 49.5186L64.375 49.5188Z" fill="#0B0B0B"/>
<path d="M44.2703 49.5186L62.9559 77.535L44.2703 105.547H61.3558C67.4132 95.9874 73.1052 87.2599 79.4281 76.6122L61.3558 49.5186H44.2703Z" fill="#0B0B0B" fill-opacity="0.62"/>
<path d="M24.1663 49.5186L42.8519 77.535L24.1663 105.547H41.2518C47.3092 95.9874 53.0012 87.2599 59.3241 76.6122L41.2518 49.5186H24.1663Z" fill="#0B0B0B" fill-opacity="0.29"/>
<path d="M172.091 45.0455V30.9091H246.364V45.0455H217.591V124H200.864V45.0455H172.091ZM280.739 125.364C273.739 125.364 267.693 123.909 262.602 121C257.542 118.061 253.648 113.909 250.92 108.545C248.193 103.152 246.83 96.803 246.83 89.5C246.83 82.3182 248.193 76.0152 250.92 70.5909C253.678 65.1364 257.527 60.8939 262.466 57.8636C267.405 54.803 273.208 53.2727 279.875 53.2727C284.178 53.2727 288.239 53.9697 292.057 55.3636C295.905 56.7273 299.299 58.8485 302.239 61.7273C305.208 64.6061 307.542 68.2727 309.239 72.7273C310.936 77.1515 311.784 82.4242 311.784 88.5455V93.5909H254.557V82.5H296.011C295.981 79.3485 295.299 76.5455 293.966 74.0909C292.633 71.6061 290.769 69.6515 288.375 68.2273C286.011 66.803 283.254 66.0909 280.102 66.0909C276.739 66.0909 273.784 66.9091 271.239 68.5455C268.693 70.1515 266.708 72.2727 265.284 74.9091C263.89 77.5151 263.178 80.3788 263.148 83.5V93.1818C263.148 97.2424 263.89 100.727 265.375 103.636C266.86 106.515 268.936 108.727 271.602 110.273C274.269 111.788 277.39 112.545 280.966 112.545C283.36 112.545 285.527 112.212 287.466 111.545C289.405 110.848 291.087 109.833 292.511 108.5C293.936 107.167 295.011 105.515 295.739 103.545L311.102 105.273C310.133 109.333 308.284 112.879 305.557 115.909C302.86 118.909 299.405 121.242 295.193 122.909C290.981 124.545 286.163 125.364 280.739 125.364ZM342.159 30.9091V124H325.705V30.9091H342.159ZM389.989 125.364C382.989 125.364 376.943 123.909 371.852 121C366.792 118.061 362.898 113.909 360.17 108.545C357.443 103.152 356.08 96.803 356.08 89.5C356.08 82.3182 357.443 76.0152 360.17 70.5909C362.928 65.1364 366.777 60.8939 371.716 57.8636C376.655 54.803 382.458 53.2727 389.125 53.2727C393.428 53.2727 397.489 53.9697 401.307 55.3636C405.155 56.7273 408.549 58.8485 411.489 61.7273C414.458 64.6061 416.792 68.2727 418.489 72.7273C420.186 77.1515 421.034 82.4242 421.034 88.5455V93.5909H363.807V82.5H405.261C405.231 79.3485 404.549 76.5455 403.216 74.0909C401.883 71.6061 400.019 69.6515 397.625 68.2273C395.261 66.803 392.504 66.0909 389.352 66.0909C385.989 66.0909 383.034 66.9091 380.489 68.5455C377.943 70.1515 375.958 72.2727 374.534 74.9091C373.14 77.5151 372.428 80.3788 372.398 83.5V93.1818C372.398 97.2424 373.14 100.727 374.625 103.636C376.11 106.515 378.186 108.727 380.852 110.273C383.519 111.788 386.64 112.545 390.216 112.545C392.61 112.545 394.777 112.212 396.716 111.545C398.655 110.848 400.337 109.833 401.761 108.5C403.186 107.167 404.261 105.515 404.989 103.545L420.352 105.273C419.383 109.333 417.534 112.879 414.807 115.909C412.11 118.909 408.655 121.242 404.443 122.909C400.231 124.545 395.413 125.364 389.989 125.364ZM470.318 54.1818V66.9091H429.045V54.1818H470.318ZM439.364 124V47.5909C439.364 42.8939 440.333 38.9848 442.273 35.8636C444.242 32.7424 446.879 30.4091 450.182 28.8636C453.485 27.3182 457.152 26.5454 461.182 26.5454C464.03 26.5454 466.561 26.7727 468.773 27.2273C470.985 27.6818 472.621 28.0909 473.682 28.4545L470.409 41.1818C469.712 40.9697 468.833 40.7576 467.773 40.5454C466.712 40.303 465.53 40.1818 464.227 40.1818C461.167 40.1818 459 40.9242 457.727 42.4091C456.485 43.8636 455.864 45.9545 455.864 48.6818V124H439.364ZM527.705 94.6364V54.1818H544.159V124H528.205V111.591H527.477C525.902 115.5 523.311 118.697 519.705 121.182C516.129 123.667 511.72 124.909 506.477 124.909C501.902 124.909 497.856 123.894 494.341 121.864C490.856 119.803 488.129 116.818 486.159 112.909C484.189 108.97 483.205 104.212 483.205 98.6364V54.1818H499.659V96.0909C499.659 100.515 500.871 104.03 503.295 106.636C505.72 109.242 508.902 110.545 512.841 110.545C515.265 110.545 517.614 109.955 519.886 108.773C522.159 107.591 524.023 105.833 525.477 103.5C526.962 101.136 527.705 98.1818 527.705 94.6364ZM577.534 83.0909V124H561.08V54.1818H576.807V66.0455H577.625C579.231 62.1364 581.792 59.0303 585.307 56.7273C588.852 54.4242 593.231 53.2727 598.443 53.2727C603.261 53.2727 607.458 54.303 611.034 56.3636C614.64 58.4242 617.428 61.4091 619.398 65.3182C621.398 69.2273 622.383 73.9697 622.352 79.5455V124H605.898V82.0909C605.898 77.4242 604.686 73.7727 602.261 71.1364C599.867 68.5 596.549 67.1818 592.307 67.1818C589.428 67.1818 586.867 67.8182 584.625 69.0909C582.413 70.3333 580.67 72.1364 579.398 74.5C578.155 76.8636 577.534 79.7273 577.534 83.0909ZM669.534 125.364C662.564 125.364 656.58 123.833 651.58 120.773C646.61 117.712 642.777 113.485 640.08 108.091C637.413 102.667 636.08 96.4242 636.08 89.3636C636.08 82.2727 637.443 76.0152 640.17 70.5909C642.898 65.1364 646.746 60.8939 651.716 57.8636C656.716 54.803 662.625 53.2727 669.443 53.2727C675.11 53.2727 680.125 54.3182 684.489 56.4091C688.883 58.4697 692.383 61.3939 694.989 65.1818C697.595 68.9394 699.08 73.3333 699.443 78.3636H683.716C683.08 75 681.564 72.197 679.17 69.9545C676.807 67.6818 673.64 66.5455 669.67 66.5455C666.307 66.5455 663.352 67.4545 660.807 69.2727C658.261 71.0606 656.277 73.6364 654.852 77C653.458 80.3636 652.761 84.3939 652.761 89.0909C652.761 93.8485 653.458 97.9394 654.852 101.364C656.246 104.758 658.201 107.379 660.716 109.227C663.261 111.045 666.246 111.955 669.67 111.955C672.095 111.955 674.261 111.5 676.17 110.591C678.11 109.652 679.731 108.303 681.034 106.545C682.337 104.788 683.231 102.652 683.716 100.136H699.443C699.049 105.076 697.595 109.455 695.08 113.273C692.564 117.061 689.14 120.03 684.807 122.182C680.473 124.303 675.383 125.364 669.534 125.364Z" fill="black"/>
</svg>
