<svg width="719" height="564" viewBox="0 0 719 564" fill="none" xmlns="http://www.w3.org/2000/svg">
<path d="M498.2 541.1C491 549.3 480.6 554 469.7 554.1C451.3 554.1 439.5 541.4 439.5 521.8C439.5 501.8 450.8 489.4 469 489.4C479.6 489.6 489.7 493.9 497.2 501.4C497.4 501.6 497.8 501.6 498 501.4C498.1 501.3 498.2 501.1 498.2 501V490.9C490.8 484.2 480 480.2 469 480.2C457.6 480.2 447.9 484.2 441 491.8C434.1 499.4 430.6 509.7 430.6 522C430.6 547 446.3 563.8 469.7 563.8C480.9 563.8 491.8 559.7 499.2 552.8V541.7C499.2 541.4 498.9 541.1 498.6 541.1C498.5 540.9 498.3 541 498.2 541.1ZM64.4 482.1H0V490.8H27.4V561.5H36.9V490.8H64.3L64.4 482.1ZM691 554.3C682 554.3 672.2 547.6 672.2 532.9C672.2 522.1 677.9 510.5 690.4 510.5C704.3 510.5 709.3 522.3 709.3 532.4C709.3 543.4 703 554.3 691 554.3ZM709.6 482.2V509.2C704.7 503.9 696.5 501.9 690.6 501.9C683.1 501.7 675.8 504.7 670.6 510.2C665.5 515.7 662.8 523.3 662.8 532.2C662.8 553.4 676.9 562.9 690.8 562.9C698.9 562.9 705.6 560 709.6 554.8V561.5H719V482.1L709.6 482.2ZM511.8 561.7H521.4V482.3H511.8V561.7ZM185.1 532.5C185.1 550.8 196.9 563 214.5 563C221.8 563.1 229 560.9 235.1 556.7V547C235.1 546.7 234.8 546.4 234.5 546.4C234.4 546.4 234.2 546.4 234.1 546.5C227.9 552.1 218.9 554.3 215 554.3C202.3 554.3 194 545.8 194 532.5C194 519.2 202.2 510.7 215 510.7C218.9 510.7 227.6 511.8 234.1 517.4C234.3 517.6 234.7 517.6 234.9 517.4C235 517.3 235 517.2 235 517V508.2C231.1 505.7 222.9 502 214.4 502C196.9 502 185.1 514.3 185.1 532.5ZM69.1 527V526.8C69.4 521.9 71.7 517.3 75.5 514.2C78.7 511.6 82.8 510.2 86.9 510.3C97.3 510.3 104 516.6 104.5 526.8V527H69.1ZM87.2 502C70.6 502 59.8 513.9 59.8 532.3C60.4 551.5 71.3 562.9 88.9 562.9C97 563 104.8 560 110.8 554.5V545C110.8 544.7 110.5 544.4 110.2 544.5C110.1 544.5 109.9 544.6 109.8 544.7C105.6 550.3 95.5 554.8 89.3 554.8C83.4 554.8 77.8 552.8 74.7 549.7C71 545.8 69 540.6 69 535.2H113.4V534.5C113.4 522 111.3 514.9 105.8 509.2C101.4 504.5 95.1 502.1 87.2 502ZM642.5 533C642.5 548.8 633.4 554.4 625.6 554.4C618 554.4 610 549.2 610 539.5V503.3H601V539.3C601 553.2 611 563 625.2 563C633.1 563 639.2 560.3 643.2 555.3V561.6H651.8V503.3H642.6L642.5 533ZM150.9 502C143.6 502 137.5 504.4 133.3 508.9V503.3H124.3V561.6H133.5V528.4C133.5 522.9 135.2 518.2 138.2 515.3C141.5 512.1 146 510.4 150.6 510.7C157.8 510.9 165 515.7 165 525.8V561.6H174.2V525.4C174.2 518.2 171.9 512.2 167.6 508.1C163.5 504.1 157.7 502 150.9 502ZM253.2 527V526.8C253.5 521.9 255.8 517.3 259.7 514.2C262.9 511.6 267 510.2 271.1 510.3C281.5 510.3 288.2 516.6 288.7 526.8V527H253.2ZM271.3 502C254.7 502 243.9 513.9 243.9 532.3C244.5 551.5 255.4 562.9 273 562.9C281.1 563 288.9 560 294.9 554.5V545C294.9 544.7 294.6 544.4 294.3 544.5C294.1 544.5 294 544.6 293.9 544.7C289.7 550.3 279.6 554.8 273.4 554.8C267.5 554.8 261.9 552.8 258.8 549.7C255.1 545.8 253.1 540.6 253.1 535.2H297.5V534.5C297.5 522 295.4 514.9 289.9 509.2C285.5 504.5 279.2 502 271.3 502ZM334.8 502C327.5 502 321.4 504.4 317.2 508.9V503.3H308.2V561.6H317.4V528.4C317.4 522.9 319.1 518.2 322.1 515.3C325.4 512.1 329.9 510.4 334.5 510.7C341.7 510.9 348.9 515.7 348.9 525.8V561.6H358.1V525.4C358.1 518.2 355.8 512.2 351.5 508.1C347.4 504.1 341.6 502 334.8 502ZM386.4 487.8H377V503.4H367.4V511.9H377V552C377 555.5 378 558.1 380.1 559.9C382.4 561.7 385.3 562.6 388.2 562.5C392.3 562.1 396.3 561.2 400.2 559.8V551C400.2 550.7 399.9 550.4 399.6 550.4C399.5 550.4 399.5 550.4 399.4 550.4C396.2 551.5 392.9 552.4 389.6 553.1C388.6 553.3 387.8 553.4 387.2 552.9C386.7 552.4 386.5 551.7 386.6 551.1V511.9H403.4V503.4H386.6L386.4 487.8ZM562.2 554.2C550.5 554.2 542.7 545.4 542.7 532.5C542.7 519.6 550.6 510.9 562.2 510.9C573.8 510.9 581.7 519.6 581.7 532.6C581.7 545.6 573.9 554.2 562.2 554.2ZM562.2 502.2C545.3 502.2 534 514.4 534 532.6C534 550.8 545.4 563 562.3 563C579.2 563 590.6 550.8 590.6 532.6C590.6 514.4 579.2 502.1 562.2 502.2Z" fill="#272727"/>
<path d="M557.4 318.5C548.7 327.2 531.3 340.2 500.9 340.2H313.9C370.4 286.1 418.3 240.6 422.7 236.2C431 227.8 439.7 219.9 448.8 212.4C470.6 192.9 487.9 190.7 503.2 190.7C524.9 190.7 542.3 199.4 557.6 212.3C587.9 240.5 587.9 290.4 557.4 318.5ZM594.4 177.6C571.4 152.8 539.1 138.6 505.2 138.6C474.8 138.6 448.7 149.5 424.7 166.8C415.9 175.5 402.9 184.1 392 197.1C383.3 205.8 196.3 387.8 196.3 387.8C207.2 390 220.2 390 231.1 390H468.2C485.6 390 498.7 390 511.7 387.8C541.7 385.6 570 373.4 592.2 353.1C642.2 305.5 642.2 225.4 594.4 177.6Z" fill="#0A0A0A"/>
<path d="M289.9 164.6C266 147.3 242 138.6 213.8 138.6C179.9 138.6 147.6 152.8 124.6 177.6C76.2 227.3 77.2 306.8 126.8 355.3C148.5 374.8 170.3 385.6 196.4 387.8L246.4 340.1H218.1C189.8 338 172.4 329.3 161.6 318.5C131.6 288.9 130.7 240.9 159.4 210.2C174.6 195 192 188.5 213.8 188.5C226.9 188.5 246.4 190.6 266 210.1C274.7 218.8 298.6 236.1 307.3 244.8H309.4L342 212.3V210.1C326.9 195 303 175.5 289.9 164.6Z" fill="#0A0A0A"/>
<path d="M518.3 110.5C493.6 44.2 430.3 0.1 359.5 0C274.7 0 207.3 62.8 194.2 140.8C200.7 140.8 207.3 138.7 216 138.7C224.7 138.7 235.6 140.8 244.3 140.8C255.2 86.6 303 47.6 359.6 47.6C407.4 47.6 448.8 75.8 468.3 116.9C468.3 116.9 470.5 119.1 470.5 116.9C485.6 114.8 503 110.5 518.3 110.5Z" fill="#0A0A0A"/>
</svg>
